<?xml version="1.0" encoding="UTF-8"?>
<svg xmlns="http://www.w3.org/2000/svg" viewBox="0 0 800 450">
  <defs>
    <linearGradient id="bgGradient" x1="0%" y1="0%" x2="100%" y2="100%">
      <stop offset="0%" style="stop-color:#1e1b4b;stop-opacity:1" />
      <stop offset="50%" style="stop-color:#312e81;stop-opacity:1" />
      <stop offset="100%" style="stop-color:#1e1b4b;stop-opacity:1" />
    </linearGradient>
    <linearGradient id="purpleGlow" x1="0%" y1="0%" x2="100%" y2="100%">
      <stop offset="0%" style="stop-color:#8b5cf6;stop-opacity:0.8" />
      <stop offset="100%" style="stop-color:#6366f1;stop-opacity:0.8" />
    </linearGradient>
    <filter id="glow">
      <feGaussianBlur stdDeviation="3" result="coloredBlur"/>
      <feMerge>
        <feMergeNode in="coloredBlur"/>
        <feMergeNode in="SourceGraphic"/>
      </feMerge>
    </filter>
  </defs>
  
  <rect width="800" height="450" fill="url(#bgGradient)"/>
  
  <circle cx="600" cy="100" r="80" fill="#8b5cf6" opacity="0.2"/>
  <circle cx="200" cy="350" r="60" fill="#6366f1" opacity="0.2"/>
  
  <rect x="80" y="60" width="320" height="200" rx="12" fill="#312e81" opacity="0.8" stroke="#8b5cf6" stroke-width="1"/>
  
  <rect x="95" y="75" width="290" height="120" rx="8" fill="#1e1b4b"/>
  
  <circle cx="240" cy="135" r="45" fill="url(#purpleGlow)" filter="url(#glow)"/>
  <circle cx="240" cy="135" r="30" fill="#1e1b4b"/>
  
  <circle cx="200" cy="115" r="5" fill="#a78bfa"/>
  <circle cx="260" cy="125" r="4" fill="#c4b5fd"/>
  <circle cx="240" cy="155" r="6" fill="#a78bfa"/>
  
  <path d="M220 135 Q240 100 260 135 Q240 170 220 135" fill="none" stroke="#8b5cf6" stroke-width="2" opacity="0.5"/>
  <path d="M205 135 Q240 90 275 135" fill="none" stroke="#a78bfa" stroke-width="1" opacity="0.3"/>
  
  <rect x="95" y="215" width="130" height="35" rx="6" fill="#3730a3"/>
  <rect x="95" y="215" width="130" height="35" rx="6" fill="url(#purpleGlow)" opacity="0.3"/>
  
  <rect x="240" y="215" width="145" height="35" rx="6" fill="#4c1d95"/>
  
  <rect x="450" y="60" width="280" height="180" rx="12" fill="#312e81" opacity="0.8" stroke="#6366f1" stroke-width="1"/>
  
  <rect x="465" y="75" width="250" height="80" rx="8" fill="#1e1b4b"/>
  
  <rect x="480" y="90" width="80" height="50" rx="4" fill="#06b6d4" opacity="0.3"/>
  <rect x="575" y="90" width="80" height="50" rx="4" fill="#22c55e" opacity="0.3"/>
  <rect x="670" y="90" width="60" height="50" rx="4" fill="#f59e0b" opacity="0.3"/>
  
  <rect x="465" y="175" width="250" height="35" rx="6" fill="#3730a3"/>
  
  <text x="480" y="197" font-family="Arial, sans-serif" font-size="12" fill="#c4b5fd">生成中...</text>
  
  <rect x="80" y="300" width="200" height="100" rx="12" fill="#312e81" opacity="0.6"/>
  
  <rect x="95" y="315" width="50" height="50" rx="6" fill="#8b5cf6" opacity="0.5"/>
  <rect x="95" y="315" width="50" height="50" rx="6" fill="url(#purpleGlow)" opacity="0.2"/>
  
  <circle cx="120" cy="340" r="8" fill="#fff" opacity="0.8"/>
  
  <rect x="160" y="315" width="115" height="50" rx="4" fill="#1e1b4b"/>
  
  <rect x="170" y="325" width="30" height="30" rx="3" fill="#6366f1"/>
  <rect x="210" y="325" width="30" height="30" rx="3" fill="#8b5cf6"/>
  <rect x="250" y="325" width="30" height="30" rx="3" fill="#a78bfa"/>
  
  <rect x="320" y="300" width="200" height="100" rx="12" fill="#312e81" opacity="0.6"/>
  
  <rect x="335" y="315" width="50" height="50" rx="6" fill="#22c55e" opacity="0.5"/>
  
  <rect x="400" y="315" width="115" height="50" rx="4" fill="#1e1b4b"/>
  
  <text x="410" y="342" font-family="Arial, sans-serif" font-size="11" fill="#a78bfa">风格: 油画</text>
  
  <rect x="560" y="300" width="170" height="100" rx="12" fill="#312e81" opacity="0.6"/>
  
  <rect x="575" y="315" width="140" height="35" rx="4" fill="#3730a3"/>
  <rect x="575" y="360" width="140" height="35" rx="4" fill="#4c1d95"/>
  
  <text x="585" y="337" font-family="Arial, sans-serif" font-size="11" fill="#c4b5fd">分辨率: 1024x1024</text>
  <text x="585" y="382" font-family="Arial, sans-serif" font-size="11" fill="#a78bfa">步数: 30</text>
  
  <circle cx="400" cy="225" r="3" fill="#fff" opacity="0.5"/>
  <circle cx="350" cy="250" r="2" fill="#8b5cf6" opacity="0.7"/>
  <circle cx="450" cy="240" r="2" fill="#6366f1" opacity="0.7"/>
  <circle cx="500" cy="220" r="2" fill="#a78bfa" opacity="0.7"/>
  <circle cx="380" cy="280" r="2" fill="#6366f1" opacity="0.5"/>
  <circle cx="420" cy="290" r="2" fill="#8b5cf6" opacity="0.5"/>
  
</svg>